# Blender v3.0.0 OBJ File: 'furniturePack.blend'
# www.blender.org
mtllib furniturePack.mtl
o chair2_Plane.001
v -4.042452 0.606101 7.312943
v -3.446347 0.606177 7.316344
v -3.391423 0.606177 7.231403
v -4.041658 0.606120 7.227695
v -4.039570 1.392497 7.227695
v -3.445861 0.606177 7.231093
v -3.992396 0.549789 7.227979
v -3.992882 0.549789 7.313230
v -3.446347 0.549789 7.316344
v -4.040672 0.549789 7.227704
v -4.041158 0.549789 7.312955
v -3.391423 0.549789 7.231403
v -3.445861 0.549789 7.231093
v -4.034778 1.297354 7.312995
v -4.083054 1.297354 7.312720
v -4.023745 1.109527 7.313056
v -4.072022 1.109527 7.312780
v -4.087847 1.392497 7.227420
v -4.081826 1.297382 7.180917
v -4.079525 1.250805 7.227487
v -4.082694 1.297362 7.274027
v -4.084985 1.343769 7.227447
v -4.031248 1.250805 7.227762
v -4.033549 1.297382 7.181192
v -4.036708 1.343769 7.227722
v -4.034417 1.297362 7.274302
v -4.073963 1.156112 7.227518
v -4.070794 1.109555 7.180978
v -4.068498 1.063068 7.227548
v -4.071661 1.109535 7.274088
v -4.022517 1.109555 7.181253
v -4.025686 1.156112 7.227793
v -4.023385 1.109535 7.274363
v -4.020221 1.063068 7.227823
v -4.039028 0.606101 6.711980
v -3.442923 0.606177 6.715371
v -3.388971 0.606177 6.800932
v -4.039205 0.606120 6.797231
v -4.037118 1.392497 6.797255
v -3.443408 0.606177 6.800622
v -3.991170 0.549789 7.012744
v -4.039652 0.606165 7.012467
v -4.039446 0.549789 7.012469
v -4.037564 1.392543 7.012479
v -4.085841 1.392543 7.012205
v -3.444635 0.606177 7.015858
v -3.390197 0.606177 7.016168
v -3.390197 0.549789 7.016168
v -3.444635 0.549789 7.015858
v -3.989943 0.549789 6.797508
v -3.989458 0.549789 6.712257
v -3.442923 0.549789 6.715371
v -4.038220 0.549789 6.797233
v -4.037735 0.549789 6.711983
v -3.388971 0.549789 6.800932
v -3.443408 0.549789 6.800622
v -4.031353 1.297354 6.712015
v -4.079630 1.297354 6.711740
v -4.080254 1.297418 7.012236
v -4.031977 1.297418 7.012511
v -4.020321 1.109527 6.712080
v -4.068598 1.109527 6.711805
v -4.020945 1.109591 7.012574
v -4.069221 1.109591 7.012299
v -4.085394 1.392497 6.796980
v -4.079904 1.297382 6.843548
v -4.077072 1.250805 6.797008
v -4.079710 1.297362 6.750435
v -4.082532 1.343769 6.796986
v -4.028795 1.250805 6.797283
v -4.031627 1.297382 6.843823
v -4.034256 1.343769 6.797261
v -4.031434 1.297362 6.750710
v -4.071510 1.156112 6.797040
v -4.068871 1.109555 6.843614
v -4.066045 1.063068 6.797073
v -4.068678 1.109535 6.750500
v -4.020595 1.109555 6.843889
v -4.023233 1.156112 6.797316
v -4.020401 1.109535 6.750775
v -4.017768 1.063068 6.797348
v -3.412056 0.606177 7.316539
v -3.391794 0.606177 7.296507
v -3.391794 0.549789 7.296507
v -3.412056 0.549789 7.316539
v -3.388600 0.606177 6.735828
v -3.408632 0.606177 6.715567
v -3.408632 0.549789 6.715567
v -3.388600 0.549789 6.735828
v -4.011210 0.549789 7.295625
v -3.998984 0.549789 7.283541
v -3.413136 0.549789 7.299050
v -3.400919 0.549789 7.286966
v -4.034718 0.549789 7.283337
v -4.022638 0.549789 7.295560
v -3.443367 0.549789 7.286725
v -3.431278 0.549789 7.298947
v -3.998836 0.549789 7.257619
v -4.010924 0.549789 7.245375
v -3.400771 0.549789 7.261045
v -3.412850 0.549789 7.248800
v -4.022352 0.549789 7.245309
v -4.034571 0.549789 7.257415
v -3.430992 0.549789 7.248697
v -3.443219 0.549789 7.260803
v -4.051354 -0.001219 7.295277
v -4.039267 -0.001219 7.307521
v -4.039342 -0.001219 7.320790
v -4.051569 -0.001219 7.332874
v -3.390815 -0.001219 7.336656
v -3.402904 -0.001219 7.324434
v -3.367180 -0.001219 7.324637
v -3.379398 -0.001219 7.336721
v -4.069340 -0.001219 7.307350
v -4.057122 -0.001219 7.295244
v -4.057336 -0.001219 7.332841
v -4.069416 -0.001219 7.320619
v -3.379183 -0.001219 7.299125
v -3.367105 -0.001219 7.311369
v -3.402828 -0.001219 7.311165
v -3.390601 -0.001219 7.299059
v -3.995898 0.549789 6.741875
v -4.007986 0.549789 6.729653
v -3.397833 0.549789 6.745301
v -3.409912 0.549789 6.733078
v -4.019414 0.549789 6.729588
v -4.031632 0.549789 6.741672
v -3.428054 0.549789 6.732975
v -3.440281 0.549789 6.745059
v -4.008272 0.549789 6.779903
v -3.996045 0.549789 6.767797
v -3.410198 0.549789 6.783329
v -3.397980 0.549789 6.771223
v -4.031780 0.549789 6.767593
v -4.019701 0.549789 6.779838
v -3.440429 0.549789 6.770981
v -3.428340 0.549789 6.783225
v -4.035905 -0.001219 6.717438
v -4.048131 -0.001219 6.729544
v -4.047917 -0.001219 6.691947
v -4.035829 -0.001219 6.704169
v -3.399391 -0.001219 6.707813
v -3.387163 -0.001219 6.695729
v -3.375746 -0.001219 6.695794
v -3.363667 -0.001219 6.708017
v -4.053899 -0.001219 6.729511
v -4.065978 -0.001219 6.717266
v -4.065903 -0.001219 6.703998
v -4.053684 -0.001219 6.691914
v -3.363743 -0.001219 6.721285
v -3.375960 -0.001219 6.733391
v -3.387378 -0.001219 6.733326
v -3.399466 -0.001219 6.721082
v -3.957575 0.606107 7.313427
v -3.996322 0.642639 7.313206
v -3.956781 0.606123 7.228179
v -3.995527 0.642657 7.227958
v -3.992898 0.642639 6.712242
v -3.954151 0.606107 6.712463
v -3.993075 0.642657 6.797493
v -3.954328 0.606123 6.797715
v -3.954775 0.606166 7.012951
v -3.993521 0.642703 7.012731
vt 0.751929 0.696906
vt 0.712285 0.697049
vt 0.712283 0.459313
vt 0.751927 0.459313
vt 0.373605 0.008247
vt 0.399826 0.008261
vt 0.399609 0.029677
vt 0.373389 0.029663
vt 0.177747 0.473683
vt 0.178461 0.447494
vt 0.206497 0.448268
vt 0.205884 0.474454
vt 0.075541 0.239812
vt 0.119557 0.238008
vt 0.119701 0.253877
vt 0.075685 0.255681
vt 0.141496 0.209180
vt 0.141363 0.221862
vt 0.054056 0.225441
vt 0.054189 0.212759
vt 0.696817 0.401828
vt 0.718367 0.374392
vt 0.719232 0.400571
vt 0.656146 0.713468
vt 0.656146 0.459313
vt 0.695790 0.459313
vt 0.695790 0.713468
vt 0.695998 0.358629
vt 0.696582 0.141144
vt 0.718997 0.139888
vt 0.358224 0.228225
vt 0.357484 0.298769
vt 0.140463 0.307667
vt 0.141043 0.252380
vt 0.162806 0.236235
vt 0.556055 0.713468
vt 0.556055 0.459313
vt 0.324787 0.543124
vt 0.302338 0.542894
vt 0.303000 0.442812
vt 0.325449 0.443042
vt 0.032330 0.241587
vt 0.009679 0.242519
vt 0.106707 0.471737
vt 0.107677 0.445540
vt 0.712283 0.443367
vt 0.721652 0.433998
vt 0.751927 0.433998
vt 0.556055 0.433998
vt 0.656146 0.433998
vt 0.852018 0.459313
vt 0.852018 0.433998
vt 0.371834 0.217202
vt 0.371732 0.205930
vt 0.397953 0.205945
vt 0.398055 0.217216
vt 0.664292 0.452352
vt 0.664292 0.443916
vt 0.455964 0.713468
vt 0.442164 0.716384
vt 0.430110 0.716384
vt 0.416320 0.713468
vt 0.682008 0.458006
vt 0.669954 0.458006
vt 0.687651 0.722038
vt 0.695790 0.735918
vt 0.687651 0.727352
vt 0.669954 0.438267
vt 0.686421 0.433998
vt 0.682008 0.438267
vt 0.664284 0.727352
vt 0.656145 0.735918
vt 0.664284 0.722038
vt 0.687660 0.443916
vt 0.695790 0.443367
vt 0.687660 0.452352
vt 0.682000 0.733002
vt 0.669945 0.733002
vt 0.342751 0.797385
vt 0.365201 0.797535
vt 0.364393 0.875974
vt 0.341943 0.875824
vt 0.696817 0.053651
vt 0.719232 0.052395
vt 0.206331 0.708859
vt 0.193559 0.708509
vt 0.178152 0.686448
vt 0.356517 0.397970
vt 0.139496 0.406869
vt 0.139620 0.394095
vt 0.161374 0.377839
vt 0.356791 0.369826
vt 0.852018 0.696543
vt 0.678959 0.376599
vt 0.443060 0.416049
vt 0.441593 0.389869
vt 0.206497 0.796315
vt 0.178437 0.839836
vt 0.178397 0.817147
vt 0.193726 0.795965
vt 0.556055 0.735918
vt 0.398893 0.100478
vt 0.372672 0.100464
vt 0.053156 0.311246
vt 0.008940 0.313059
vt 0.053736 0.255959
vt 0.245725 0.894459
vt 0.223275 0.894459
vt 0.222991 0.816017
vt 0.245441 0.816017
vt 0.178318 0.773862
vt 0.178234 0.729771
vt 0.719216 0.008247
vt 0.696801 0.009503
vt 0.162827 0.707667
vt 0.107152 0.706142
vt 0.162993 0.795123
vt 0.365441 0.897631
vt 0.342992 0.897481
vt 0.247075 0.916109
vt 0.224625 0.916109
vt 0.107401 0.837890
vt 0.107317 0.793598
vt 0.373645 0.413142
vt 0.139639 0.422738
vt 0.371739 0.192681
vt 0.371956 0.171265
vt 0.398177 0.171279
vt 0.397960 0.192695
vt 0.036181 0.469775
vt 0.008247 0.468998
vt 0.008857 0.442812
vt 0.036893 0.443586
vt 0.758139 0.326875
vt 0.735726 0.328162
vt 0.735782 0.284052
vt 0.758195 0.282765
vt 0.052189 0.410450
vt 0.052314 0.397675
vt 0.074109 0.381418
vt 0.118125 0.379613
vt 0.952109 0.459313
vt 0.952107 0.696906
vt 0.416320 0.459313
vt 0.455964 0.459313
vt 0.399682 0.396864
vt 0.399826 0.412732
vt 0.139920 0.363355
vt 0.323400 0.643198
vt 0.300951 0.642969
vt 0.008247 0.384112
vt 0.030897 0.383186
vt 0.424458 0.722038
vt 0.424458 0.727352
vt 0.416320 0.735918
vt 0.952109 0.433998
vt 0.982384 0.433998
vt 0.991753 0.443367
vt 0.991753 0.459313
vt 0.455964 0.433998
vt 0.424466 0.443916
vt 0.424466 0.452352
vt 0.416320 0.443367
vt 0.447834 0.452352
vt 0.447834 0.443916
vt 0.430118 0.458006
vt 0.442172 0.458006
vt 0.442172 0.438267
vt 0.430118 0.438267
vt 0.425689 0.433998
vt 0.455964 0.735918
vt 0.447826 0.727352
vt 0.447826 0.722038
vt 0.430110 0.733002
vt 0.442164 0.733002
vt 0.342992 0.718941
vt 0.365441 0.719091
vt 0.052333 0.426318
vt 0.036583 0.682540
vt 0.021368 0.703756
vt 0.008689 0.703403
vt 0.373389 0.385243
vt 0.991751 0.697049
vt 0.008854 0.790859
vt 0.021533 0.791211
vt 0.036833 0.813239
vt 0.036879 0.835928
vt 0.052613 0.366935
vt 0.245725 0.737575
vt 0.223275 0.737575
vt 0.036664 0.725862
vt 0.036747 0.769953
vt 0.325449 0.682875
vt 0.303000 0.682645
vt 0.051879 0.704605
vt 0.052044 0.792060
vt 0.758195 0.348655
vt 0.735782 0.349943
vt 0.247075 0.715925
vt 0.224625 0.715925
vt 0.417787 0.417505
vt 0.416320 0.391324
vt 0.425672 0.390761
vt 0.427139 0.416942
vt 0.682000 0.716384
vt 0.669945 0.716384
vt 0.267940 0.442815
vt 0.275931 0.442812
vt 0.751929 0.714924
vt 0.712285 0.715068
vt 0.852018 0.714562
vt 0.991751 0.715068
vt 0.952108 0.714924
vt 0.358517 0.200284
vt 0.350402 0.444120
vt 0.352253 0.701893
vt 0.347923 0.702448
vt 0.341943 0.445203
vt 0.716650 0.731562
vt 0.724644 0.731561
vt 0.726541 0.733458
vt 0.726541 0.741449
vt 0.722179 0.745813
vt 0.714180 0.745823
vt 0.712283 0.743926
vt 0.712288 0.735925
vt 0.777566 0.265779
vt 0.780687 0.008944
vt 0.785987 0.008618
vt 0.785987 0.265260
vt 0.879734 0.265325
vt 0.882359 0.008681
vt 0.885034 0.008876
vt 0.885034 0.265712
vt 0.907169 0.265518
vt 0.911302 0.008247
vt 0.915637 0.008757
vt 0.915637 0.266514
vt 0.231519 0.442812
vt 0.228281 0.699381
vt 0.223916 0.699431
vt 0.222991 0.442910
vt 0.317480 0.699421
vt 0.317480 0.955886
vt 0.313115 0.955859
vt 0.308953 0.699368
vt 0.362084 0.442812
vt 0.362084 0.700777
vt 0.360198 0.700973
vt 0.358347 0.443199
vt 0.245483 0.442890
vt 0.240035 0.699431
vt 0.236282 0.699384
vt 0.239520 0.442816
vt 0.268346 0.727095
vt 0.268342 0.719094
vt 0.272098 0.715340
vt 0.280096 0.715351
vt 0.284458 0.719714
vt 0.284458 0.727705
vt 0.280703 0.731459
vt 0.272708 0.731459
vt 0.284458 0.442891
vt 0.279219 0.698846
vt 0.274855 0.698806
vt 0.748086 0.380698
vt 0.740092 0.380698
vt 0.735730 0.376334
vt 0.735725 0.368333
vt 0.737622 0.366437
vt 0.745621 0.366447
vt 0.749983 0.370811
vt 0.749983 0.378802
vt 0.378577 0.445101
vt 0.382305 0.444633
vt 0.386444 0.702095
vt 0.384563 0.702331
vt 0.824540 0.267535
vt 0.816058 0.266650
vt 0.820198 0.009172
vt 0.824540 0.009626
vt 0.261977 0.442874
vt 0.266864 0.698809
vt 0.263111 0.698846
vt 0.851967 0.265879
vt 0.846666 0.265493
vt 0.849292 0.008681
vt 0.851967 0.008875
vt 0.749791 0.265428
vt 0.741370 0.265947
vt 0.744491 0.008944
vt 0.749791 0.008618
vt 0.382610 0.731190
vt 0.382614 0.723189
vt 0.386976 0.718825
vt 0.394970 0.718825
vt 0.398725 0.722578
vt 0.398725 0.730569
vt 0.394363 0.734933
vt 0.386365 0.734944
vt 0.390245 0.443712
vt 0.398725 0.442812
vt 0.398725 0.700714
vt 0.394385 0.701174
vt 0.940083 0.008313
vt 0.948611 0.008247
vt 0.948523 0.264177
vt 0.944158 0.264211
vt 0.305114 0.955886
vt 0.300952 0.699395
vt 0.890674 0.009264
vt 0.890674 0.266099
vt 0.923589 0.009615
vt 0.923589 0.267372
vt 0.771922 0.266104
vt 0.775043 0.009269
vt 0.874101 0.264891
vt 0.876726 0.008247
vt 0.791624 0.008247
vt 0.791624 0.264889
vt 0.857607 0.009263
vt 0.857607 0.266266
vt 0.735725 0.266271
vt 0.738847 0.009268
vt 0.755428 0.008247
vt 0.755428 0.265057
vt 0.808117 0.265724
vt 0.812258 0.008247
vt 0.956602 0.008281
vt 0.956514 0.264211
vt 0.841034 0.265059
vt 0.843659 0.008247
vn -0.0001 1.0000 0.0001
vn 1.0000 0.0000 0.0057
vn -0.9998 -0.0202 -0.0075
vn 0.0057 0.0000 -1.0000
vn 0.9982 0.0586 0.0093
vn -0.0057 0.0001 1.0000
vn 0.0000 -1.0000 0.0000
vn -0.0057 -0.0000 1.0000
vn -0.0000 1.0000 0.0002
vn -0.9999 -0.0106 -0.0075
vn 0.0000 1.0000 -0.0000
vn 0.0000 -1.0000 -0.0002
vn -0.9982 -0.0586 -0.0093
vn 0.9983 0.0586 0.0021
vn -0.0042 0.6674 0.7447
vn 0.0040 -0.7070 -0.7072
vn 0.0040 0.7071 -0.7071
vn -0.9998 -0.0202 -0.0039
vn -0.0001 1.0000 -0.0001
vn 0.0057 0.0001 -1.0000
vn 0.0000 1.0000 -0.0002
vn -0.9999 -0.0106 -0.0039
vn -0.0000 -1.0000 0.0002
vn -0.9983 -0.0586 -0.0021
vn 0.0042 0.6674 -0.7447
vn -0.0040 -0.7070 0.7072
vn -0.0040 0.7071 0.7071
vn 0.7031 0.0000 0.7111
vn 0.7111 0.0000 -0.7031
vn 0.6860 0.7276 0.0065
vn 0.6860 0.7276 0.0013
vn -0.9980 0.0625 -0.0057
vn -0.0057 0.0679 0.9977
vn 0.9981 0.0615 0.0057
vn -0.9973 -0.0736 -0.0057
vn 0.9973 -0.0727 0.0057
vn 0.0057 -0.0906 -0.9959
vn 0.0057 0.0679 -0.9977
vn -0.0057 -0.0906 0.9959
vn 0.7069 -0.1151 -0.6979
vn 0.7030 -0.0034 0.7112
vn -0.6988 -0.1157 -0.7058
vn 0.7117 -0.0206 -0.7022
vn -0.7110 -0.0041 0.7032
vn -0.7082 0.0920 0.7000
vn 0.7003 0.0913 0.7080
vn -0.7037 -0.0200 -0.7102
vn 0.6989 -0.1151 0.7059
vn 0.7110 -0.0034 -0.7032
vn -0.7068 -0.1157 0.6979
vn 0.7037 -0.0206 0.7102
vn -0.7029 -0.0041 -0.7112
vn -0.7002 0.0920 -0.7080
vn 0.7083 0.0913 -0.7000
vn -0.7118 -0.0200 0.7021
usemtl chair2plastic
s off
f 156/1/1 154/2/1 2/3/1 6/4/1
f 83/5/2 84/6/2 12/7/2 3/8/2
f 4/9/3 10/10/3 11/11/3 1/12/3
f 23/13/4 32/14/4 27/15/4 20/16/4
f 16/17/5 33/18/5 32/14/5 23/13/5 26/19/5 14/20/5
f 8/21/6 1/22/6 11/23/6
f 7/24/7 13/25/7 9/26/7 8/27/7
f 1/22/8 155/28/8 16/29/8 17/30/8
f 157/31/5 163/32/5 63/33/5 31/34/5 34/35/5
f 41/36/7 49/37/7 13/25/7 7/24/7
f 44/38/9 45/39/9 18/40/9 5/41/9
f 26/19/5 25/42/5 5/43/5 14/20/5
f 42/44/10 43/45/10 10/10/10 4/9/10
f 6/4/11 2/3/11 82/46/11 83/47/11 3/48/11
f 49/37/7 48/49/7 12/50/7 13/25/7
f 46/51/11 6/4/11 3/48/11 47/52/11
f 36/53/4 87/54/4 88/55/4 52/56/4
f 104/57/7 13/25/7 12/50/7 101/58/7
f 50/59/7 131/60/7 122/61/7 51/62/7
f 96/63/7 9/26/7 13/25/7 105/64/7
f 90/65/7 8/27/7 11/66/7 95/67/7
f 100/68/7 12/50/7 84/69/7 93/70/7
f 102/71/7 10/72/7 7/24/7 99/73/7
f 92/74/7 84/69/7 85/75/7 9/26/7 97/76/7
f 94/77/7 11/66/7 10/72/7 103/78/7
f 59/79/12 60/80/12 24/81/12 19/82/12
f 16/29/8 14/83/8 15/84/8 17/30/8
f 1/12/13 17/85/13 30/86/13 29/87/13 4/9/13
f 158/88/14 61/89/14 80/90/14 81/91/14 160/92/14
f 162/93/1 156/1/1 6/4/1 46/51/1
f 154/94/8 8/21/8 9/95/8 2/96/8
f 15/97/13 18/98/13 22/99/13 21/100/13
f 7/24/7 10/72/7 43/101/7 41/36/7
f 3/8/2 12/7/2 48/102/2 47/103/2
f 60/104/5 44/105/5 5/43/5 25/42/5 24/106/5
f 28/107/9 31/108/9 63/109/9 64/110/9
f 17/85/13 15/97/13 21/100/13 20/111/13 27/112/13 30/86/13
f 18/113/15 15/84/15 14/83/15 5/114/15
f 42/44/13 4/9/13 29/87/13 28/115/13 64/116/13
f 19/117/13 20/111/13 21/100/13 22/99/13
f 23/13/5 24/106/5 25/42/5 26/19/5
f 27/112/13 28/115/13 29/87/13 30/86/13
f 31/34/5 32/14/5 33/18/5 34/35/5
f 23/118/16 20/119/16 19/82/16 24/81/16
f 27/120/17 32/121/17 31/108/17 28/107/17
f 19/117/13 22/99/13 18/98/13 45/122/13 59/123/13
f 158/88/4 35/124/4 62/125/4 61/89/4
f 86/126/2 37/127/2 55/128/2 89/129/2
f 38/130/18 35/131/18 54/132/18 53/133/18
f 70/134/8 67/135/8 74/136/8 79/137/8
f 61/89/14 57/138/14 73/139/14 70/140/14 79/141/14 80/90/14
f 162/93/19 46/51/19 40/142/19 161/143/19
f 50/59/7 51/62/7 52/144/7 56/145/7
f 35/124/20 51/146/20 54/147/20
f 160/92/14 81/91/14 78/148/14 63/33/14 163/32/14
f 41/36/7 50/59/7 56/145/7 49/37/7
f 44/38/21 39/149/21 65/150/21 45/39/21
f 73/139/14 57/138/14 39/151/14 72/152/14
f 51/62/7 123/153/7 126/154/7 54/155/7
f 42/44/22 38/130/22 53/133/22 43/45/22
f 40/142/11 37/156/11 86/157/11 87/158/11 36/159/11
f 49/37/7 56/145/7 55/160/7 48/49/7
f 46/51/11 47/52/11 37/156/11 40/142/11
f 125/161/7 128/162/7 52/144/7 88/163/7
f 56/145/7 137/164/7 132/165/7 55/160/7
f 52/144/7 129/166/7 136/167/7 56/145/7
f 55/160/7 133/168/7 124/169/7 89/170/7
f 53/171/7 135/172/7 130/173/7 50/59/7
f 54/155/7 127/174/7 134/175/7 53/171/7
f 59/79/23 66/176/23 71/177/23 60/80/23
f 61/89/4 62/125/4 58/178/4 57/138/4
f 35/131/24 38/130/24 76/179/24 77/180/24 62/181/24
f 51/146/4 159/182/4 36/53/4 52/56/4
f 161/143/19 40/142/19 36/159/19 159/183/19
f 58/184/24 68/185/24 69/186/24 65/187/24
f 50/59/7 41/36/7 43/101/7 53/171/7
f 37/127/2 47/103/2 48/102/2 55/128/2
f 60/104/14 71/188/14 72/152/14 39/151/14 44/105/14
f 75/189/21 64/110/21 63/109/21 78/190/21
f 62/181/24 77/180/24 74/191/24 67/192/24 68/185/24 58/184/24
f 65/150/25 39/149/25 57/193/25 58/194/25
f 42/44/24 64/116/24 75/195/24 76/179/24 38/130/24
f 66/196/24 69/186/24 68/185/24 67/192/24
f 70/140/14 73/139/14 72/152/14 71/188/14
f 74/191/24 77/180/24 76/179/24 75/195/24
f 78/148/14 81/91/14 80/90/14 79/141/14
f 70/134/26 71/197/26 66/198/26 67/135/26
f 74/199/27 75/189/27 78/190/27 79/200/27
f 66/196/24 59/123/24 45/122/24 65/187/24 69/186/24
f 84/201/28 83/202/28 82/203/28 85/204/28
f 88/55/29 87/54/29 86/126/29 89/129/29
f 2/96/8 9/95/8 85/204/8 82/203/8
f 90/65/7 91/205/7 8/27/7
f 92/74/7 93/70/7 84/69/7
f 94/77/7 95/67/7 11/66/7
f 96/63/7 97/76/7 9/26/7
f 98/206/7 99/73/7 7/24/7
f 100/68/7 101/58/7 12/50/7
f 102/71/7 103/78/7 10/72/7
f 104/57/7 105/64/7 13/25/7
f 122/61/7 123/153/7 51/62/7
f 125/207/7 89/170/7 124/208/7
f 126/154/7 127/174/7 54/155/7
f 128/162/7 129/166/7 52/144/7
f 130/173/7 131/60/7 50/59/7
f 132/165/7 133/168/7 55/160/7
f 134/175/7 135/172/7 53/171/7
f 136/167/7 137/164/7 56/145/7
f 98/206/7 7/24/7 8/27/7 91/205/7
f 89/170/7 125/161/7 88/163/7
f 154/94/8 155/28/8 1/22/8 8/21/8
f 158/88/4 159/182/4 51/146/4 35/124/4
f 157/209/30 155/210/30 154/2/30 156/1/30
f 163/211/30 157/209/30 156/1/30 162/93/30
f 161/143/31 159/183/31 158/212/31 160/213/31
f 162/93/31 161/143/31 160/213/31 163/211/31
f 155/214/5 157/31/5 34/35/5 33/18/5 16/17/5
usemtl chair2metal
f 103/215/32 114/216/32 117/217/32 94/218/32
f 108/219/7 109/220/7 116/221/7 117/222/7 114/223/7 115/224/7 106/225/7 107/226/7
f 97/227/33 110/228/33 113/229/33 92/230/33
f 95/231/33 116/232/33 109/233/33 90/234/33
f 93/235/34 112/236/34 119/237/34 100/238/34
f 105/239/35 120/240/35 111/241/35 96/242/35
f 91/243/36 108/244/36 107/245/36 98/246/36
f 99/247/37 106/248/37 115/249/37 102/250/37
f 101/251/37 118/252/37 121/253/37 104/254/37
f 120/255/7 121/256/7 118/257/7 119/258/7 112/259/7 113/260/7 110/261/7 111/262/7
f 124/208/34 133/263/34 150/264/34 145/265/34
f 140/266/7 141/267/7 138/268/7 139/269/7 146/270/7 147/271/7 148/272/7 149/273/7
f 126/274/38 123/275/38 140/276/38 149/277/38
f 136/278/35 129/279/35 142/280/35 153/281/35
f 128/282/38 125/207/38 144/283/38 143/284/38
f 130/285/39 135/286/39 146/287/39 139/288/39
f 132/289/39 137/290/39 152/291/39 151/292/39
f 152/293/7 153/294/7 142/295/7 143/296/7 144/297/7 145/298/7 150/299/7 151/300/7
f 122/301/36 131/302/36 138/303/36 141/304/36
f 134/305/32 127/306/32 148/307/32 147/308/32
f 98/246/40 107/245/40 106/309/40 99/310/40
f 108/311/41 91/312/41 90/234/41 109/233/41
f 104/254/42 121/253/42 120/240/42 105/239/42
f 118/313/43 101/314/43 100/238/43 119/237/43
f 96/315/44 111/316/44 110/228/44 97/227/44
f 116/232/45 95/231/45 94/317/45 117/318/45
f 92/230/46 113/229/46 112/319/46 93/320/46
f 102/250/47 115/249/47 114/216/47 103/215/47
f 130/285/48 139/288/48 138/321/48 131/322/48
f 140/276/49 123/275/49 122/301/49 141/304/49
f 136/323/50 153/324/50 152/291/50 137/290/50
f 150/325/51 133/326/51 132/289/51 151/292/51
f 128/327/52 143/328/52 142/280/52 129/279/52
f 148/307/53 127/306/53 126/329/53 149/330/53
f 124/208/54 145/265/54 144/283/54 125/207/54
f 134/331/55 147/332/55 146/287/55 135/286/55
