# Blender v3.0.0 OBJ File: 'furniturePack.blend'
# www.blender.org
mtllib MiniSofa.mtl
o MiniSofa_Cube.007
v -9.124770 0.213485 7.075529
v -8.995184 0.213485 7.075529
v -8.958829 1.297815 7.121100
v -9.161125 0.705233 7.100523
v -8.067878 0.213485 7.075529
v -8.022101 0.705233 7.100523
v -9.161125 1.309152 7.100523
v -8.958829 0.705233 6.927336
v -8.995184 0.213485 6.952330
v -8.067878 0.213485 6.952330
v -8.022101 0.705233 6.927336
v -9.161125 0.705233 6.927336
v -9.124770 0.213485 6.952330
v -9.144135 0.969547 7.083534
v -9.144135 0.969547 6.944325
v -8.958829 0.969547 7.083534
v -8.039091 0.969547 7.083534
v -8.958829 0.969547 6.944325
v -8.039091 0.969547 6.944325
v -8.022101 0.546670 7.100523
v -9.161125 0.546670 7.100523
v -8.958829 0.546670 6.927336
v -8.022101 0.546670 6.927336
v -9.161125 0.546670 6.927336
v -8.958829 0.754934 7.100523
v -8.958829 0.693896 7.121100
v -8.836205 0.772026 7.140505
v -8.836205 1.295982 7.140505
v -8.848556 0.705233 7.100523
v -8.848556 1.309152 7.100523
v -8.980251 0.705233 7.100523
v -8.937407 0.705233 7.100523
v -8.958829 0.705233 7.121945
v -8.958829 0.726654 7.100523
v -8.937407 0.705233 7.100523
v -8.958829 0.726654 7.100523
v -8.937407 1.309152 7.100523
v -8.980251 1.309152 7.100523
v -7.987389 0.560161 7.100523
v -8.000912 0.546670 7.100523
v -8.001968 0.740602 7.100523
v -7.986993 0.725364 7.100523
v -7.997573 0.729761 7.100523
v -9.161125 0.957574 7.100523
v -9.161125 0.957574 6.927336
v -8.958829 0.957574 7.100523
v -8.022101 0.957574 7.100523
v -8.958829 0.957574 6.927336
v -8.022101 0.957574 6.927336
v -8.204514 0.213485 7.075529
v -8.204514 0.213485 6.952330
v -8.250290 0.705233 6.927336
v -8.250290 0.957574 7.100523
v -8.250290 0.957574 6.927336
v -8.250290 0.546670 6.927336
v -8.263140 0.969547 7.083534
v -8.263140 0.969547 6.944325
v -8.958829 0.213485 7.100523
v -9.161125 0.213485 7.100523
v -8.958829 0.213485 6.927336
v -9.161125 0.213485 6.927336
v -8.022101 0.213485 7.100523
v -8.022101 0.213485 6.927336
v -8.250290 0.213485 7.100523
v -8.250290 0.213485 6.927336
v -9.043999 0.003531 7.028848
v -9.160182 0.003531 7.028848
v -9.043999 0.003531 6.927620
v -9.160182 0.003531 6.927620
v -8.032830 0.003531 7.028848
v -8.032830 0.003531 6.927620
v -8.155334 0.003531 7.028848
v -8.155334 0.003531 6.927620
v -9.124770 0.213485 8.184195
v -8.995184 0.213485 8.184195
v -8.958829 1.297815 8.138623
v -9.161125 0.705233 8.159201
v -8.067878 0.213485 8.184195
v -8.022101 0.705233 8.159201
v -9.161125 1.309152 8.159201
v -8.958829 0.705233 8.332388
v -8.995184 0.213485 8.307394
v -8.067878 0.213485 8.307394
v -8.022101 0.705233 8.332388
v -9.161125 0.705233 8.332388
v -9.124770 0.213485 8.307394
v -9.144135 0.969547 8.176189
v -9.144135 0.969547 8.315398
v -8.958829 0.969547 8.176189
v -8.039091 0.969547 8.176189
v -8.958829 0.969547 8.315398
v -8.039091 0.969547 8.315398
v -8.022101 0.546670 8.159201
v -9.161125 0.546670 8.159201
v -8.958829 0.546670 8.332388
v -8.022101 0.546670 8.332388
v -9.161125 0.546670 8.332388
v -8.958829 0.754934 8.159201
v -8.958829 0.693896 8.138623
v -8.836205 0.772026 8.119219
v -8.836205 1.295982 8.119219
v -8.848556 0.705233 8.159201
v -8.848556 1.309152 8.159201
v -8.980251 0.705233 8.159201
v -8.937407 0.705233 8.159201
v -8.958829 0.705233 8.137779
v -8.958829 0.726654 8.159201
v -8.937407 0.705233 8.159201
v -8.958829 0.726654 8.159201
v -8.937407 1.309152 8.159201
v -8.980251 1.309152 8.159201
v -7.987389 0.560161 8.159201
v -8.000912 0.546670 8.159201
v -8.001968 0.740602 8.159201
v -7.986993 0.725364 8.159201
v -7.997573 0.729761 8.159201
v -9.161125 0.957574 8.159201
v -9.161125 0.957574 8.332388
v -8.958829 0.957574 8.159201
v -8.022101 0.957574 8.159201
v -8.958829 0.957574 8.332388
v -8.022101 0.957574 8.332388
v -8.204514 0.213485 8.184195
v -8.204514 0.213485 8.307394
v -8.250290 0.705233 8.332388
v -8.250290 0.957574 8.159201
v -8.250290 0.957574 8.332388
v -8.250290 0.546670 8.332388
v -8.263140 0.969547 8.176189
v -8.263140 0.969547 8.315398
v -8.958829 0.213485 8.159201
v -9.161125 0.213485 8.159201
v -8.958829 0.213485 8.332388
v -9.161125 0.213485 8.332388
v -8.022101 0.213485 8.159201
v -8.022101 0.213485 8.332388
v -8.250290 0.213485 8.159201
v -8.250290 0.213485 8.332388
v -9.043999 0.003531 8.230876
v -9.160182 0.003531 8.230876
v -9.043999 0.003531 8.332104
v -9.160182 0.003531 8.332104
v -8.032830 0.003531 8.230876
v -8.032830 0.003531 8.332104
v -8.155334 0.003531 8.230876
v -8.155334 0.003531 8.332104
vt 0.146735 0.811323
vt 0.113200 0.816909
vt 0.116668 0.763255
vt 0.146735 0.758247
vt 0.925728 0.692055
vt 0.956173 0.695630
vt 0.956173 0.748337
vt 0.931157 0.745399
vt 0.761479 0.347744
vt 0.761479 0.318836
vt 0.786667 0.318836
vt 0.786667 0.347744
vt 0.615064 0.349317
vt 0.615064 0.318836
vt 0.640251 0.318836
vt 0.640251 0.349317
vt 0.988191 0.517086
vt 0.957748 0.520682
vt 0.963178 0.467618
vt 0.988191 0.464664
vt 0.589703 0.921717
vt 0.557910 0.927086
vt 0.561198 0.873616
vt 0.589703 0.868803
vt 0.113200 0.840527
vt 0.146732 0.846131
vt 0.146732 0.899031
vt 0.116668 0.894006
vt 0.954434 0.909062
vt 0.923988 0.912630
vt 0.929418 0.859168
vt 0.954434 0.856237
vt 0.113200 0.922649
vt 0.143643 0.926237
vt 0.143643 0.978758
vt 0.118629 0.975810
vt 0.880968 0.298844
vt 0.912764 0.304196
vt 0.912764 0.357286
vt 0.884256 0.352488
vt 0.857350 0.304430
vt 0.857350 0.357506
vt 0.827283 0.352498
vt 0.823814 0.298844
vt 0.923991 0.830459
vt 0.929421 0.777115
vt 0.954436 0.774177
vt 0.954436 0.826884
vt 0.737861 0.347744
vt 0.712674 0.347744
vt 0.712674 0.318836
vt 0.737861 0.318836
vt 0.689056 0.349317
vt 0.663869 0.349317
vt 0.663869 0.318836
vt 0.689056 0.318836
vt 0.988191 0.388623
vt 0.988191 0.441046
vt 0.963178 0.438092
vt 0.957748 0.385028
vt 0.900370 0.861606
vt 0.900370 0.914520
vt 0.871866 0.909707
vt 0.868577 0.856237
vt 0.868577 0.750559
vt 0.872045 0.697079
vt 0.902110 0.692055
vt 0.902110 0.744954
vt 0.643767 0.872370
vt 0.643767 0.925196
vt 0.618751 0.922265
vt 0.613321 0.868803
vt 0.936382 0.354954
vt 0.941811 0.301793
vt 0.966825 0.298844
vt 0.966825 0.351365
vt 0.868577 0.832619
vt 0.871866 0.778974
vt 0.900373 0.774177
vt 0.900373 0.827267
vt 0.548755 0.618102
vt 0.548755 0.668437
vt 0.485972 0.668437
vt 0.485972 0.618102
vt 0.401734 0.318318
vt 0.441186 0.318318
vt 0.441186 0.361410
vt 0.401734 0.361410
vt 0.868819 0.275226
vt 0.868819 0.011809
vt 0.874153 0.016929
vt 0.874153 0.270106
vt 0.238441 0.318318
vt 0.238441 0.054901
vt 0.295218 0.054901
vt 0.295218 0.318318
vt 0.588207 0.618102
vt 0.671104 0.618102
vt 0.671104 0.668437
vt 0.588207 0.668437
vt 0.588207 0.441805
vt 0.548755 0.441805
vt 0.548755 0.385028
vt 0.588207 0.385028
vt 0.114030 0.691537
vt 0.196916 0.691537
vt 0.196916 0.734629
vt 0.114030 0.734629
vt 0.062144 0.054901
vt 0.062144 0.011809
vt 0.238441 0.011809
vt 0.503971 0.318318
vt 0.503971 0.361410
vt 0.380642 0.951248
vt 0.380642 0.905141
vt 0.415280 0.905141
vt 0.415280 0.951248
vt 0.380642 0.732042
vt 0.380642 0.676295
vt 0.415280 0.676295
vt 0.415280 0.732042
vt 0.485972 0.441805
vt 0.074584 0.691537
vt 0.074584 0.734629
vt 0.011809 0.734629
vt 0.011809 0.691537
vt 0.044577 0.761119
vt 0.089582 0.761119
vt 0.089582 0.911377
vt 0.044577 0.911377
vt 0.671104 0.441805
vt 0.671104 0.385028
vt 0.196916 0.428120
vt 0.114030 0.428120
vt 0.318836 0.318318
vt 0.318836 0.361410
vt 0.926031 0.435363
vt 0.931361 0.440693
vt 0.931361 0.668437
vt 0.868577 0.668437
vt 0.868577 0.611660
vt 0.868577 0.435363
vt 0.441186 0.054901
vt 0.591446 0.054901
vt 0.591446 0.318318
vt 0.062144 0.318318
vt 0.401734 0.054901
vt 0.931361 0.385028
vt 0.931361 0.430033
vt 0.868577 0.385028
vt 0.934130 0.435363
vt 0.931361 0.440693
vt 0.931308 0.435363
vt 0.926031 0.435363
vt 0.823814 0.275226
vt 0.823814 0.011809
vt 0.039247 0.908505
vt 0.039247 0.758247
vt 0.419507 0.955472
vt 0.376415 0.955472
vt 0.376415 0.905137
vt 0.376415 0.728840
vt 0.419507 0.672063
vt 0.419507 0.728840
vt 0.419507 0.905137
vt 0.376415 0.672063
vt 0.011809 0.318318
vt 0.011809 0.054901
vt 0.485972 0.385028
vt 0.020855 0.048682
vt 0.053098 0.048682
vt 0.053098 0.018028
vt 0.020855 0.018028
vt 0.011809 0.011809
vt 0.283828 0.048682
vt 0.283828 0.018028
vt 0.295218 0.011809
vt 0.249830 0.048682
vt 0.249830 0.018028
vt 0.677847 0.062144
vt 0.615064 0.062144
vt 0.615064 0.011809
vt 0.677847 0.011809
vt 0.401734 0.011809
vt 0.441186 0.011809
vt 0.717299 0.062144
vt 0.717299 0.011809
vt 0.800196 0.011809
vt 0.800196 0.062144
vt 0.717299 0.238441
vt 0.717299 0.295218
vt 0.677847 0.295218
vt 0.677847 0.238441
vt 0.114030 0.385028
vt 0.196916 0.385028
vt 0.238441 0.361410
vt 0.062144 0.361410
vt 0.503971 0.011809
vt 0.503971 0.054901
vt 0.348570 0.951248
vt 0.313932 0.951248
vt 0.313932 0.905141
vt 0.348570 0.905141
vt 0.348570 0.732042
vt 0.313932 0.732042
vt 0.313932 0.676295
vt 0.348570 0.676295
vt 0.615064 0.238441
vt 0.074584 0.428120
vt 0.011809 0.428120
vt 0.011809 0.385028
vt 0.074584 0.385028
vt 0.602915 0.694927
vt 0.602915 0.845185
vt 0.557910 0.845185
vt 0.557910 0.694927
vt 0.800196 0.238441
vt 0.800196 0.295218
vt 0.318836 0.054901
vt 0.318836 0.011809
vt 0.277988 0.905137
vt 0.220534 0.905137
vt 0.220534 0.728840
vt 0.220534 0.672063
vt 0.283318 0.672063
vt 0.283318 0.899807
vt 0.283318 0.955472
vt 0.220534 0.955472
vt 0.283318 0.910467
vt 0.277988 0.905137
vt 0.283264 0.905137
vt 0.283318 0.899807
vt 0.286087 0.905137
vt 0.608245 0.842312
vt 0.608245 0.692055
vt 0.352797 0.955472
vt 0.309705 0.955472
vt 0.352797 0.728840
vt 0.352797 0.905137
vt 0.309705 0.728840
vt 0.309705 0.672063
vt 0.309705 0.905137
vt 0.352797 0.672063
vt 0.615064 0.295218
vt 0.020855 0.324537
vt 0.053098 0.324537
vt 0.053098 0.355191
vt 0.011809 0.361410
vt 0.020855 0.355191
vt 0.283828 0.324537
vt 0.295218 0.361410
vt 0.283828 0.355191
vt 0.249830 0.324537
vt 0.249830 0.355191
vt 0.033917 0.761119
vt 0.033917 0.911377
vt 0.011809 0.911377
vt 0.011809 0.761119
vt 0.828283 0.394976
vt 0.844959 0.385028
vt 0.844959 0.648445
vt 0.828283 0.638497
vt 0.735822 0.935480
vt 0.735822 0.672063
vt 0.739244 0.672063
vt 0.739244 0.935480
vt 0.697939 0.638497
vt 0.697939 0.394976
vt 0.762861 0.905887
vt 0.802308 0.905296
vt 0.808502 0.911307
vt 0.807447 0.913956
vt 0.766347 0.914473
vt 0.762940 0.911159
vt 0.879479 0.011809
vt 0.879479 0.275226
vt 0.450161 0.935480
vt 0.443125 0.935480
vt 0.443125 0.672063
vt 0.450161 0.672063
vt 0.455491 0.677393
vt 0.455491 0.930150
vt 0.952643 0.011809
vt 0.952643 0.275226
vt 0.930535 0.275226
vt 0.925205 0.269896
vt 0.925205 0.017139
vt 0.930535 0.011809
vt 0.901587 0.011809
vt 0.901587 0.275226
vt 0.694722 0.648445
vt 0.694722 0.385028
vt 0.840073 0.672063
vt 0.840073 0.935480
vt 0.834800 0.935480
vt 0.834800 0.672063
vt 0.798897 0.677578
vt 0.804147 0.672169
vt 0.811182 0.672063
vt 0.811182 0.910173
vt 0.458622 0.648445
vt 0.458622 0.385028
vt 0.462354 0.385028
vt 0.462354 0.648445
vt 0.220534 0.648445
vt 0.220534 0.385028
vt 0.694722 0.935480
vt 0.694722 0.672063
vt 0.613575 0.694927
vt 0.635683 0.694927
vt 0.635683 0.845185
vt 0.613575 0.845185
vt 0.485972 0.700641
vt 0.486051 0.695369
vt 0.489457 0.692055
vt 0.530557 0.692572
vt 0.531612 0.695220
vt 0.525418 0.701231
vt 0.534292 0.696354
vt 0.534292 0.934464
vt 0.527257 0.934359
vt 0.522008 0.928950
vn 0.0000 -0.2170 0.9762
vn -0.9736 -0.2281 0.0000
vn 0.0000 -1.0000 0.0000
vn 0.9864 0.1647 0.0000
vn 0.0000 0.1169 -0.9931
vn 0.9740 -0.2265 0.0000
vn -0.9861 0.1663 0.0000
vn 0.0000 -0.2170 -0.9762
vn 0.9864 0.1646 0.0000
vn 0.0000 0.1169 0.9931
vn 0.0000 0.0000 -1.0000
vn -1.0000 0.0000 0.0000
vn 0.4678 0.8839 0.0000
vn 1.0000 0.0000 0.0000
vn 0.0000 1.0000 0.0000
vn 0.0000 0.0000 1.0000
vn -0.4053 0.3734 0.8344
vn 0.6927 0.0000 -0.7212
vn -0.5760 0.8174 0.0000
vn 0.0000 0.8174 0.5761
vn 0.0000 0.8174 -0.5760
vn 0.5761 0.8174 0.0000
vn -0.4054 0.3734 -0.8344
vn 0.6927 0.0000 0.7212
vn 0.0000 0.8174 -0.5761
vn 0.0000 0.8174 0.5760
vn 0.5760 0.8174 0.0000
vn 0.9833 -0.1818 0.0000
vn 0.7063 -0.7079 0.0000
vn -0.4677 0.8839 0.0000
vn 0.9554 0.0000 -0.2952
vn 0.7294 0.6841 0.0000
vn -0.6927 0.0000 -0.7212
vn 0.7132 0.7009 0.0000
vn 0.0150 0.9999 0.0000
vn 1.0000 -0.0024 0.0000
vn 0.9554 0.0000 0.2952
vn -0.6928 0.0000 0.7212
vn -0.0001 0.0000 1.0000
usemtl sofa_90_metal
s off
f 5/1/1 50/2/1 72/3/1 70/4/1
f 50/5/2 51/6/2 73/7/2 72/8/2
f 66/9/3 67/10/3 69/11/3 68/12/3
f 70/13/3 72/14/3 73/15/3 71/16/3
f 10/17/4 5/18/4 70/19/4 71/20/4
f 13/21/5 9/22/5 68/23/5 69/24/5
f 51/25/5 10/26/5 71/27/5 73/28/5
f 9/29/6 2/30/6 66/31/6 68/32/6
f 1/33/7 13/34/7 69/35/7 67/36/7
f 2/37/1 1/38/1 67/39/1 66/40/1
f 78/41/8 143/42/8 145/43/8 123/44/8
f 123/45/2 145/46/2 146/47/2 124/48/2
f 139/49/3 141/50/3 142/51/3 140/52/3
f 143/53/3 144/54/3 146/55/3 145/56/3
f 83/57/9 144/58/9 143/59/9 78/60/9
f 86/61/10 142/62/10 141/63/10 82/64/10
f 124/65/10 146/66/10 144/67/10 83/68/10
f 82/69/6 141/70/6 139/71/6 75/72/6
f 74/73/7 140/74/7 142/75/7 86/76/7
f 75/77/8 139/78/8 140/79/8 74/80/8
usemtl sofa_90_main_color
f 8/81/11 12/82/11 45/83/11 48/84/11
f 21/85/12 4/86/12 12/87/12 24/88/12
f 38/89/13 111/90/13 76/91/13 3/92/13
f 137/93/3 64/94/3 62/95/3 135/96/3
f 22/97/11 60/98/11 61/99/11 24/100/11
f 55/101/11 52/102/11 11/103/11 23/104/11
f 20/105/14 62/106/14 63/107/14 23/108/14
f 64/94/3 58/109/3 60/110/3 65/111/3
f 12/87/12 4/86/12 44/112/12 45/113/12
f 14/114/15 16/115/15 18/116/15 15/117/15
f 56/118/15 17/119/15 19/120/15 57/121/15
f 52/102/11 8/81/11 48/84/11 54/122/11
f 6/123/14 11/124/14 49/125/14 47/126/14
f 31/127/11 4/128/11 7/129/11 38/130/11
f 6/123/14 20/105/14 23/108/14 11/124/14
f 65/131/11 55/101/11 23/104/11 63/132/11
f 8/81/11 22/97/11 24/100/11 12/82/11
f 135/133/14 62/106/14 20/105/14 93/134/14
f 59/135/12 21/85/12 24/88/12 61/136/12
f 36/137/16 35/138/16 6/139/16 47/140/16 53/141/16 46/142/16
f 77/143/12 80/144/12 7/145/12 4/86/12
f 131/146/3 58/109/3 64/94/3 137/93/3
f 21/85/12 94/147/12 77/143/12 4/86/12
f 4/148/16 31/149/16 36/137/16 46/142/16 44/150/16
f 31/149/17 26/151/17 32/152/17 33/153/17 34/154/17 35/138/17 36/137/17
f 7/155/15 80/156/15 111/90/15 38/89/15
f 3/157/18 26/158/18 31/127/18 38/130/18
f 14/114/19 15/117/19 45/159/19 44/160/19
f 56/118/20 16/115/20 46/161/20 53/162/20
f 16/115/20 14/114/20 44/160/20 46/161/20
f 57/121/21 19/120/21 49/163/21 54/164/21
f 15/117/21 18/116/21 48/165/21 45/159/21
f 19/120/22 17/119/22 47/166/22 49/163/22
f 18/116/21 57/121/21 54/164/21 48/165/21
f 17/119/20 56/118/20 53/162/20 47/166/20
f 131/146/3 132/167/3 59/168/3 58/109/3
f 60/98/11 22/97/11 55/101/11 65/131/11
f 11/103/11 52/102/11 54/122/11 49/169/11
f 16/115/15 56/118/15 57/121/15 18/116/15
f 22/97/11 8/81/11 52/102/11 55/101/11
f 1/170/3 2/171/3 58/109/3 59/168/3
f 9/172/3 13/173/3 61/174/3 60/110/3
f 13/173/3 1/170/3 59/168/3 61/174/3
f 5/175/3 10/176/3 63/177/3 62/95/3
f 2/171/3 9/172/3 60/110/3 58/109/3
f 50/178/3 5/175/3 62/95/3 64/94/3
f 10/176/3 51/179/3 65/111/3 63/177/3
f 51/179/3 50/178/3 64/94/3 65/111/3
f 81/180/16 121/181/16 118/182/16 85/183/16
f 94/147/12 97/184/12 85/185/12 77/143/12
f 95/186/16 97/187/16 134/188/16 133/189/16
f 128/190/16 96/191/16 84/192/16 125/193/16
f 93/134/14 96/194/14 136/195/14 135/133/14
f 137/93/3 138/196/3 133/197/3 131/146/3
f 85/185/12 118/198/12 117/199/12 77/143/12
f 87/200/15 88/201/15 91/202/15 89/203/15
f 129/204/15 130/205/15 92/206/15 90/207/15
f 125/193/16 127/208/16 121/181/16 81/180/16
f 79/209/14 120/210/14 122/211/14 84/212/14
f 104/213/16 111/214/16 80/215/16 77/216/16
f 79/209/14 84/212/14 96/194/14 93/134/14
f 138/217/16 136/218/16 96/191/16 128/190/16
f 81/180/16 85/183/16 97/187/16 95/186/16
f 132/219/12 134/220/12 97/184/12 94/147/12
f 109/221/11 119/222/11 126/223/11 120/224/11 79/225/11 108/226/11
f 77/227/11 117/228/11 119/222/11 109/221/11 104/229/11
f 104/229/23 109/221/23 108/226/23 107/230/23 106/231/23 105/232/23 99/233/23
f 76/234/24 111/214/24 104/213/24 99/235/24
f 87/200/19 117/236/19 118/237/19 88/201/19
f 129/204/25 126/238/25 119/239/25 89/203/25
f 89/203/25 119/239/25 117/236/25 87/200/25
f 130/205/26 127/240/26 122/241/26 92/206/26
f 88/201/26 118/237/26 121/242/26 91/202/26
f 92/206/27 122/241/27 120/243/27 90/207/27
f 91/202/26 121/242/26 127/240/26 130/205/26
f 90/207/25 120/243/25 126/238/25 129/204/25
f 133/189/16 138/217/16 128/190/16 95/186/16
f 84/192/16 122/244/16 127/208/16 125/193/16
f 89/203/15 91/202/15 130/205/15 129/204/15
f 95/186/16 128/190/16 125/193/16 81/180/16
f 74/245/3 132/167/3 131/146/3 75/246/3
f 82/247/3 133/197/3 134/248/3 86/249/3
f 86/249/3 134/248/3 132/167/3 74/245/3
f 78/250/3 135/96/3 136/251/3 83/252/3
f 75/246/3 131/146/3 133/197/3 82/247/3
f 123/253/3 137/93/3 135/96/3 78/250/3
f 83/252/3 136/251/3 138/196/3 124/254/3
f 124/254/3 138/196/3 137/93/3 123/253/3
f 59/135/12 132/219/12 94/147/12 21/85/12
usemtl sofa_90_pillows
f 32/255/11 37/256/11 30/257/11 29/258/11
f 100/259/28 102/260/28 29/261/28 27/262/28
f 39/263/29 112/264/29 113/265/29 40/266/29
f 28/267/14 101/268/14 100/259/14 27/262/14
f 20/269/11 6/270/11 43/271/11 42/272/11 39/273/11 40/274/11
f 3/92/30 76/91/30 110/275/30 37/276/30
f 107/277/12 98/278/12 25/279/12 34/280/12 33/281/12 106/282/12
f 29/283/3 102/284/3 105/285/3 106/286/3 33/287/3 32/288/3
f 110/275/15 103/289/15 30/290/15 37/276/15
f 28/267/31 27/262/31 29/261/31 30/291/31
f 30/291/32 103/292/32 101/268/32 28/267/32
f 40/293/3 113/294/3 93/295/3 20/296/3
f 6/270/11 35/297/11 34/298/11 25/299/11 41/300/11 43/271/11
f 37/256/33 32/255/33 26/158/33 3/157/33
f 41/301/34 114/302/34 115/303/34 42/304/34
f 41/300/11 42/272/11 43/271/11
f 114/302/35 41/301/35 25/305/35 98/306/35
f 112/264/36 39/263/36 42/307/36 115/308/36
f 105/309/16 102/310/16 103/311/16 110/312/16
f 93/313/16 113/314/16 112/315/16 115/316/16 116/317/16 79/318/16
f 101/268/37 103/292/37 102/260/37 100/259/37
f 79/318/16 116/317/16 114/319/16 98/320/16 107/321/16 108/322/16
f 110/312/38 76/234/38 99/235/38 105/309/38
f 114/319/39 116/317/39 115/316/39
