# Blender v3.0.0 OBJ File: 'furniturePack.blend'
# www.blender.org
mtllib chair3.mtl
o chair3_Plane.002
v -4.026894 0.606177 5.668977
v -3.426018 0.606177 5.657636
v -4.033494 0.549789 5.651598
v -3.432342 0.549789 5.640252
v -4.075162 0.606177 5.669888
v -4.069222 0.549789 5.652273
v -4.069802 1.392747 5.669787
v -4.118071 1.392747 5.670698
v -3.480447 0.606177 5.658664
v -3.474784 0.549789 5.641053
v -4.028502 0.606177 5.583740
v -3.427627 0.606177 5.572399
v -4.034442 0.549789 5.601357
v -3.433290 0.549789 5.590010
v -4.076771 0.606177 5.584651
v -4.070171 0.549789 5.602031
v -4.071410 1.392747 5.584550
v -4.119679 1.392747 5.585461
v -3.475732 0.549789 5.590811
v -3.482056 0.606177 5.573427
v -4.028502 0.549789 5.583740
v -4.026894 0.549789 5.668977
v -3.480447 0.549789 5.658664
v -3.426018 0.549789 5.657636
v -4.076771 0.549789 5.584651
v -4.075162 0.549789 5.669888
v -3.427627 0.549789 5.572399
v -3.482056 0.549789 5.573427
v -4.034442 -0.001219 5.601357
v -4.033494 -0.001219 5.651598
v -3.474784 -0.001219 5.641053
v -3.432342 -0.001219 5.640252
v -4.070171 -0.001219 5.602031
v -4.069222 -0.001219 5.652273
v -3.433290 -0.001219 5.590010
v -3.475732 -0.001219 5.590811
v -4.069802 1.297294 5.669787
v -4.118071 1.297294 5.670698
v -4.119679 1.297294 5.585461
v -4.071410 1.297294 5.584550
v -4.075162 0.663490 5.669888
v -4.026894 0.663490 5.668977
v -4.076771 0.663490 5.584651
v -4.028502 0.663490 5.583740
v -4.031661 0.733912 5.669067
v -4.036428 0.804335 5.669158
v -4.041196 0.874758 5.669247
v -4.045964 0.945180 5.669337
v -4.050731 1.015603 5.669427
v -4.055499 1.086026 5.669518
v -4.060266 1.156448 5.669607
v -4.065034 1.226871 5.669697
v -4.081539 0.733912 5.584742
v -4.086307 0.804335 5.584831
v -4.091074 0.874758 5.584921
v -4.095841 0.945180 5.585011
v -4.100609 1.015603 5.585102
v -4.105377 1.086026 5.585191
v -4.110144 1.156448 5.585281
v -4.114912 1.226871 5.585371
v -4.033270 0.733912 5.583830
v -4.038037 0.804335 5.583920
v -4.042805 0.874758 5.584011
v -4.047573 0.945180 5.584100
v -4.052340 1.015603 5.584190
v -4.057108 1.086026 5.584280
v -4.061875 1.156448 5.584370
v -4.066643 1.226871 5.584460
v -4.113303 1.226871 5.670609
v -4.108535 1.156448 5.670518
v -4.103768 1.086026 5.670428
v -4.099000 1.015603 5.670338
v -4.094233 0.945180 5.670249
v -4.089465 0.874758 5.670158
v -4.084698 0.804335 5.670068
v -4.079930 0.733912 5.669979
v -4.038235 0.606177 5.068102
v -3.437359 0.606177 5.056761
v -4.044175 0.549789 5.085718
v -3.443023 0.549789 5.074372
v -4.086504 0.606177 5.069013
v -4.079903 0.549789 5.086392
v -4.081143 1.392747 5.068912
v -4.129412 1.392747 5.069823
v -3.491788 0.606177 5.057788
v -3.485464 0.549789 5.075173
v -4.036626 0.606177 5.153339
v -3.435751 0.606177 5.141998
v -4.043226 0.549789 5.135960
v -3.442075 0.549789 5.124614
v -4.084895 0.606177 5.154250
v -4.078955 0.549789 5.136634
v -4.079534 1.392747 5.154149
v -4.127803 1.392747 5.155060
v -3.484516 0.549789 5.125415
v -3.490179 0.606177 5.143025
v -4.032564 0.606177 5.368540
v -4.032564 0.549789 5.368540
v -4.080833 0.606177 5.369451
v -4.080833 0.549789 5.369451
v -4.075472 1.392747 5.369349
v -4.123741 1.392747 5.370261
v -3.486118 0.606177 5.358226
v -3.431689 0.606177 5.357199
v -3.431689 0.549789 5.357199
v -3.486118 0.549789 5.358226
v -4.036626 0.549789 5.153339
v -4.038235 0.549789 5.068102
v -3.491788 0.549789 5.057788
v -3.437359 0.549789 5.056761
v -4.084895 0.549789 5.154250
v -4.086504 0.549789 5.069013
v -3.435751 0.549789 5.141998
v -3.490179 0.549789 5.143025
v -4.043226 -0.001219 5.135960
v -4.044175 -0.001219 5.085718
v -3.485464 -0.001219 5.075173
v -3.443023 -0.001219 5.074372
v -4.078955 -0.001219 5.136634
v -4.079903 -0.001219 5.086392
v -3.442075 -0.001219 5.124614
v -3.484516 -0.001219 5.125415
v -4.081143 1.297294 5.068912
v -4.129412 1.297294 5.069823
v -4.127803 1.297294 5.155060
v -4.079534 1.297294 5.154149
v -4.123741 1.297294 5.370261
v -4.075472 1.297294 5.369349
v -4.086504 0.663490 5.069013
v -4.038235 0.663490 5.068102
v -4.084895 0.663490 5.154250
v -4.036626 0.663490 5.153339
v -4.080833 0.663490 5.369451
v -4.032564 0.663490 5.368540
v -4.043002 0.733912 5.068192
v -4.047770 0.804335 5.068282
v -4.052537 0.874758 5.068372
v -4.057305 0.945180 5.068462
v -4.062072 1.015603 5.068552
v -4.066840 1.086026 5.068642
v -4.071608 1.156448 5.068732
v -4.076375 1.226871 5.068822
v -4.089662 0.733912 5.154340
v -4.094430 0.804335 5.154430
v -4.099197 0.874758 5.154520
v -4.103965 0.945180 5.154610
v -4.108733 1.015603 5.154700
v -4.113500 1.086026 5.154790
v -4.118268 1.156448 5.154880
v -4.123035 1.226871 5.154970
v -4.041393 0.733912 5.153429
v -4.046161 0.804335 5.153519
v -4.050929 0.874758 5.153609
v -4.055696 0.945180 5.153699
v -4.060464 1.015603 5.153789
v -4.065231 1.086026 5.153879
v -4.069999 1.156448 5.153969
v -4.074766 1.226871 5.154059
v -4.124644 1.226871 5.069733
v -4.119876 1.156448 5.069643
v -4.115109 1.086026 5.069553
v -4.110341 1.015603 5.069463
v -4.105574 0.945180 5.069373
v -4.100806 0.874758 5.069283
v -4.096039 0.804335 5.069193
v -4.091271 0.733912 5.069103
v -4.114206 1.156448 5.370081
v -4.118974 1.226871 5.370171
v -4.065937 1.156448 5.369170
v -4.070704 1.226871 5.369260
v -4.104671 1.015603 5.369901
v -4.109438 1.086026 5.369991
v -4.056402 1.015603 5.368990
v -4.061170 1.086026 5.369080
v -4.095136 0.874758 5.369721
v -4.099903 0.945180 5.369811
v -4.046867 0.874758 5.368810
v -4.051634 0.945180 5.368900
v -4.085600 0.733912 5.369541
v -4.090368 0.804335 5.369631
v -4.037332 0.733912 5.368630
v -4.042099 0.804335 5.368720
vt 0.365508 0.427921
vt 0.329693 0.427921
vt 0.329693 0.405051
vt 0.365508 0.405051
vt 0.288635 0.891235
vt 0.288635 0.659756
vt 0.306468 0.659756
vt 0.306468 0.891235
vt 0.263671 0.343704
vt 0.283919 0.342542
vt 0.285277 0.366192
vt 0.265029 0.367354
vt 0.034445 0.356865
vt 0.035803 0.380515
vt 0.012971 0.381825
vt 0.011613 0.358176
vt 0.228272 0.428719
vt 0.228272 0.405051
vt 0.264086 0.405051
vt 0.264086 0.428719
vt 0.641207 0.302452
vt 0.641207 0.342517
vt 0.605392 0.342517
vt 0.605392 0.302452
vt 0.901373 0.323126
vt 0.881091 0.323126
vt 0.881091 0.287312
vt 0.901373 0.287312
vt 0.265029 0.052809
vt 0.262730 0.012775
vt 0.282979 0.011613
vt 0.285277 0.051647
vt 0.822051 0.618216
vt 0.822051 0.388612
vt 0.857866 0.388612
vt 0.857866 0.618216
vt 0.365508 0.657524
vt 0.329693 0.657524
vt 0.455930 0.657524
vt 0.455930 0.427921
vt 0.731629 0.618216
vt 0.731629 0.388612
vt 0.264086 0.719558
vt 0.264086 0.759623
vt 0.228272 0.759623
vt 0.228272 0.719558
vt 0.901373 0.413549
vt 0.881091 0.413549
vt 0.731629 0.302452
vt 0.731629 0.342517
vt 0.694065 0.892999
vt 0.694065 0.661723
vt 0.715175 0.661723
vt 0.715175 0.892999
vt 0.137850 0.428719
vt 0.137850 0.405051
vt 0.881091 0.011613
vt 0.904760 0.011613
vt 0.904760 0.047427
vt 0.881091 0.047427
vt 0.731629 0.365742
vt 0.822051 0.365742
vt 0.455930 0.405051
vt 0.829403 0.620850
vt 0.850514 0.620850
vt 0.850514 0.368261
vt 0.857866 0.365742
vt 0.850514 0.386094
vt 0.850514 0.635863
vt 0.857866 0.638497
vt 0.822051 0.638497
vt 0.829403 0.635863
vt 0.829403 0.368261
vt 0.829403 0.386094
vt 0.870534 0.916225
vt 0.888367 0.916225
vt 0.888367 0.937335
vt 0.870534 0.937335
vt 0.937162 0.638369
vt 0.922150 0.638369
vt 0.922150 0.617259
vt 0.937162 0.617259
vt 0.782737 0.892999
vt 0.782737 0.661723
vt 0.803848 0.661723
vt 0.803848 0.892999
vt 0.915746 0.893202
vt 0.915746 0.661723
vt 0.930758 0.661723
vt 0.930758 0.893202
vt 0.415088 0.912229
vt 0.415088 0.680750
vt 0.432921 0.680750
vt 0.432921 0.912229
vt 0.456147 0.912229
vt 0.456147 0.680750
vt 0.471159 0.680750
vt 0.471159 0.912229
vt 0.605392 0.892999
vt 0.605392 0.661723
vt 0.626503 0.661723
vt 0.626503 0.892999
vt 0.871410 0.892999
vt 0.871410 0.661723
vt 0.892520 0.661723
vt 0.892520 0.892999
vt 0.264086 0.689916
vt 0.228272 0.689916
vt 0.264725 0.082460
vt 0.284973 0.081298
vt 0.641207 0.272809
vt 0.605392 0.272809
vt 0.641207 0.011613
vt 0.641207 0.035669
vt 0.605392 0.035669
vt 0.605392 0.011613
vt 0.262291 0.319667
vt 0.282539 0.318505
vt 0.264086 0.452775
vt 0.228272 0.452775
vt 0.731629 0.011613
vt 0.731629 0.035669
vt 0.137850 0.452775
vt 0.137849 0.759623
vt 0.137849 0.719558
vt 0.731629 0.638497
vt 0.904760 0.137849
vt 0.881091 0.137849
vt 0.185641 0.873271
vt 0.205923 0.873271
vt 0.205923 0.963693
vt 0.185641 0.963693
vt 0.713425 0.947247
vt 0.693189 0.945877
vt 0.693189 0.916225
vt 0.713425 0.917595
vt 0.968106 0.377734
vt 0.968106 0.287312
vt 0.988387 0.287312
vt 0.988387 0.377734
vt 0.847308 0.947247
vt 0.827073 0.945877
vt 0.827073 0.916225
vt 0.847308 0.917595
vt 0.641207 0.243167
vt 0.731629 0.243167
vt 0.731629 0.272809
vt 0.669964 0.947247
vt 0.649729 0.945877
vt 0.649729 0.916225
vt 0.669964 0.917595
vt 0.974265 0.661723
vt 0.974265 0.752145
vt 0.953984 0.752145
vt 0.953984 0.661723
vt 0.901327 0.594033
vt 0.881091 0.592663
vt 0.881091 0.563011
vt 0.901327 0.564381
vt 0.641207 0.124596
vt 0.731629 0.124596
vt 0.731629 0.154239
vt 0.641207 0.154239
vt 0.944834 0.522404
vt 0.924599 0.521034
vt 0.924599 0.491382
vt 0.944834 0.492752
vt 0.641207 0.065311
vt 0.731629 0.065311
vt 0.731629 0.094954
vt 0.641207 0.094954
vt 0.605392 0.065311
vt 0.605392 0.094954
vt 0.605392 0.124596
vt 0.605392 0.154239
vt 0.641207 0.183881
vt 0.605392 0.183881
vt 0.641207 0.213524
vt 0.605392 0.213524
vt 0.605392 0.243167
vt 0.262595 0.290016
vt 0.282843 0.288854
vt 0.262899 0.260365
vt 0.283148 0.259203
vt 0.263204 0.230715
vt 0.283452 0.229552
vt 0.263508 0.201064
vt 0.283756 0.199901
vt 0.263812 0.171413
vt 0.284060 0.170250
vt 0.264116 0.141762
vt 0.284364 0.140599
vt 0.264421 0.112111
vt 0.284669 0.110949
vt 0.264086 0.482418
vt 0.228272 0.482418
vt 0.264086 0.512060
vt 0.228272 0.512060
vt 0.264086 0.541703
vt 0.228272 0.541703
vt 0.264086 0.571345
vt 0.228272 0.571345
vt 0.264086 0.600988
vt 0.228272 0.600988
vt 0.264086 0.630630
vt 0.228272 0.630630
vt 0.264086 0.660273
vt 0.228272 0.660273
vt 0.948267 0.011613
vt 0.948267 0.102035
vt 0.927985 0.102035
vt 0.927985 0.011613
vt 0.137849 0.689916
vt 0.137850 0.660273
vt 0.011613 0.963693
vt 0.011613 0.873271
vt 0.031894 0.873271
vt 0.031894 0.963693
vt 0.731629 0.183881
vt 0.731629 0.213524
vt 0.137850 0.630630
vt 0.137850 0.600988
vt 0.055120 0.963693
vt 0.055120 0.873271
vt 0.075401 0.873271
vt 0.075401 0.963693
vt 0.098627 0.963693
vt 0.098627 0.873271
vt 0.118909 0.873271
vt 0.118909 0.963693
vt 0.137850 0.571345
vt 0.137850 0.541703
vt 0.162416 0.782849
vt 0.162416 0.873271
vt 0.142134 0.873271
vt 0.142134 0.782849
vt 0.924599 0.468156
vt 0.924599 0.377734
vt 0.944880 0.377734
vt 0.944880 0.468156
vt 0.137850 0.512060
vt 0.137850 0.482418
vt 0.249430 0.782849
vt 0.249430 0.873271
vt 0.229149 0.873271
vt 0.229149 0.782849
vt 0.546352 0.427921
vt 0.546352 0.405051
vt 0.582167 0.405051
vt 0.582167 0.427921
vt 0.391862 0.912229
vt 0.374030 0.912229
vt 0.374030 0.680750
vt 0.391862 0.680750
vt 0.560561 0.049734
vt 0.561919 0.026084
vt 0.582167 0.027247
vt 0.580809 0.050896
vt 0.331335 0.036574
vt 0.308503 0.035263
vt 0.309860 0.011613
vt 0.332693 0.012924
vt 0.047427 0.428719
vt 0.011613 0.428719
vt 0.011613 0.405051
vt 0.047427 0.405051
vt 0.822051 0.302452
vt 0.857866 0.302452
vt 0.857866 0.342517
vt 0.822051 0.342517
vt 0.901373 0.503971
vt 0.901373 0.539785
vt 0.881091 0.539785
vt 0.881091 0.503971
vt 0.561919 0.340629
vt 0.582167 0.341791
vt 0.579868 0.381826
vt 0.559620 0.380663
vt 0.641207 0.618216
vt 0.605392 0.618216
vt 0.605392 0.388612
vt 0.641207 0.388612
vt 0.546352 0.657524
vt 0.582167 0.657524
vt 0.011613 0.719558
vt 0.047427 0.719558
vt 0.047427 0.759623
vt 0.011613 0.759623
vt 0.350804 0.912027
vt 0.329693 0.912027
vt 0.329693 0.680750
vt 0.350804 0.680750
vt 0.881091 0.264086
vt 0.881091 0.228272
vt 0.904760 0.228272
vt 0.904760 0.264086
vt 0.641207 0.365742
vt 0.633855 0.620850
vt 0.612744 0.620850
vt 0.612744 0.368261
vt 0.612744 0.386094
vt 0.605392 0.365742
vt 0.612744 0.635863
vt 0.633855 0.635863
vt 0.641207 0.638497
vt 0.605392 0.638497
vt 0.633855 0.368261
vt 0.633855 0.386094
vt 0.881091 0.638369
vt 0.881091 0.617259
vt 0.898924 0.617259
vt 0.898924 0.638369
vt 0.930758 0.916428
vt 0.930758 0.937538
vt 0.915746 0.937538
vt 0.915746 0.916428
vt 0.759511 0.892999
vt 0.738401 0.892999
vt 0.738401 0.661723
vt 0.759511 0.661723
vt 0.509397 0.912229
vt 0.494385 0.912229
vt 0.494385 0.680750
vt 0.509397 0.680750
vt 0.306468 0.636530
vt 0.288635 0.636530
vt 0.288635 0.405051
vt 0.306468 0.405051
vt 0.547635 0.912229
vt 0.532623 0.912229
vt 0.532623 0.680750
vt 0.547635 0.680750
vt 0.848184 0.892999
vt 0.827073 0.892999
vt 0.827073 0.661723
vt 0.848184 0.661723
vt 0.670839 0.892999
vt 0.649729 0.892999
vt 0.649729 0.661723
vt 0.670839 0.661723
vt 0.011613 0.689916
vt 0.047427 0.689916
vt 0.561614 0.310978
vt 0.581863 0.312140
vt 0.822051 0.272809
vt 0.857866 0.272809
vt 0.822051 0.011613
vt 0.857866 0.011613
vt 0.857866 0.035669
vt 0.822051 0.035669
vt 0.579429 0.074934
vt 0.559181 0.073771
vt 0.047427 0.452775
vt 0.011613 0.452775
vt 0.185641 0.782849
vt 0.205923 0.782849
vt 0.605392 0.947247
vt 0.605392 0.917595
vt 0.625628 0.916225
vt 0.625628 0.945877
vt 0.988387 0.468156
vt 0.968106 0.468156
vt 0.780111 0.947247
vt 0.780111 0.917595
vt 0.800346 0.916225
vt 0.800346 0.945877
vt 0.822051 0.243167
vt 0.736650 0.947247
vt 0.736650 0.917595
vt 0.756885 0.916225
vt 0.756885 0.945877
vt 0.974265 0.842567
vt 0.953984 0.842567
vt 0.924552 0.594033
vt 0.924552 0.564381
vt 0.944787 0.563011
vt 0.944787 0.592663
vt 0.822051 0.124596
vt 0.822051 0.154239
vt 0.286233 0.945483
vt 0.286233 0.915831
vt 0.306468 0.914460
vt 0.306468 0.944113
vt 0.822051 0.065311
vt 0.822051 0.094954
vt 0.857866 0.065311
vt 0.857866 0.094954
vt 0.857866 0.124596
vt 0.857866 0.154239
vt 0.857866 0.183881
vt 0.822051 0.183881
vt 0.857866 0.213524
vt 0.822051 0.213524
vt 0.857866 0.243167
vt 0.579733 0.104585
vt 0.559485 0.103422
vt 0.580037 0.134235
vt 0.559789 0.133073
vt 0.580342 0.163886
vt 0.560093 0.162724
vt 0.580646 0.193537
vt 0.560398 0.192375
vt 0.580950 0.223188
vt 0.560702 0.222025
vt 0.581254 0.252839
vt 0.561006 0.251676
vt 0.581558 0.282490
vt 0.561310 0.281327
vt 0.047427 0.482418
vt 0.011613 0.482418
vt 0.047427 0.512060
vt 0.011613 0.512060
vt 0.047427 0.541703
vt 0.011613 0.541703
vt 0.047427 0.571345
vt 0.011613 0.571345
vt 0.047427 0.600988
vt 0.011613 0.600988
vt 0.047427 0.630630
vt 0.011613 0.630630
vt 0.047427 0.660273
vt 0.011613 0.660273
vt 0.948267 0.192457
vt 0.927985 0.192457
vt 0.011613 0.782849
vt 0.031894 0.782849
vt 0.055120 0.782849
vt 0.075401 0.782849
vt 0.098627 0.782849
vt 0.118909 0.782849
vt 0.162416 0.963693
vt 0.142134 0.963693
vt 0.924599 0.287312
vt 0.944880 0.287312
vt 0.249430 0.963693
vt 0.229149 0.963693
vn 0.0000 1.0000 0.0000
vn -0.0189 0.0000 -0.9998
vn 0.0189 0.0000 0.9998
vn -0.9998 0.0000 0.0189
vn 0.9998 0.0000 -0.0189
vn 0.0000 -1.0000 0.0000
vn -0.9975 -0.0676 0.0188
vn 0.9975 0.0676 -0.0188
vn -0.9975 -0.0675 0.0188
usemtl chair3
s off
f 20/1/1 9/2/1 2/3/1 12/4/1
f 14/5/2 35/6/2 36/7/2 19/8/2
f 1/9/3 5/10/3 26/11/3 22/12/3
f 9/13/3 23/14/3 24/15/3 2/16/3
f 15/17/4 25/18/4 26/19/4 5/20/4
f 40/21/5 17/22/5 7/23/5 37/24/5
f 17/25/1 18/26/1 8/27/1 7/28/1
f 37/29/3 7/30/3 8/31/3 38/32/3
f 1/9/3 22/12/3 23/14/3 9/13/3
f 21/33/6 28/34/6 23/35/6 22/36/6
f 11/37/1 1/38/1 9/2/1 20/1/1
f 97/39/1 11/37/1 20/1/1 103/40/1
f 98/41/6 106/42/6 28/34/6 21/33/6
f 38/43/4 8/44/4 18/45/4 39/46/4
f 101/47/1 102/48/1 18/26/1 17/25/1
f 128/49/5 101/50/5 17/22/5 40/21/5
f 3/51/5 30/52/5 29/53/5 13/54/5
f 99/55/4 100/56/4 25/18/4 15/17/4
f 2/57/5 24/58/5 27/59/5 12/60/5
f 106/42/6 105/61/6 27/62/6 28/34/6
f 103/40/1 20/1/1 12/4/1 104/63/1
f 13/64/6 21/33/6 22/36/6 3/65/6
f 4/66/6 24/67/6 23/35/6 10/68/6
f 6/69/6 26/70/6 25/71/6 16/72/6
f 3/65/6 22/36/6 26/70/6 6/69/6
f 14/73/6 27/62/6 24/67/6 4/66/6
f 10/68/6 23/35/6 28/34/6 19/74/6
f 16/72/6 25/71/6 21/33/6 13/64/6
f 19/74/6 28/34/6 27/62/6 14/73/6
f 36/75/6 35/76/6 32/77/6 31/78/6
f 30/79/6 34/80/6 33/81/6 29/82/6
f 19/83/4 36/84/4 31/85/4 10/86/4
f 6/87/3 34/88/3 30/89/3 3/90/3
f 10/91/3 31/92/3 32/93/3 4/94/3
f 13/95/2 29/96/2 33/97/2 16/98/2
f 4/99/5 32/100/5 35/101/5 14/102/5
f 16/103/4 33/104/4 34/105/4 6/106/4
f 69/107/7 38/43/7 39/46/7 60/108/7
f 52/109/3 37/29/3 38/32/3 69/110/3
f 68/111/8 40/21/8 37/24/8 52/112/8
f 11/113/5 44/114/5 42/115/5 1/116/5
f 1/9/3 42/117/3 41/118/3 5/10/3
f 5/20/4 41/119/4 43/120/4 15/17/4
f 97/121/5 134/122/5 44/114/5 11/113/5
f 15/17/4 43/120/4 133/123/4 99/55/4
f 39/46/4 18/45/4 102/124/4 127/125/4
f 21/33/6 25/71/6 100/126/6 98/41/6
f 12/60/5 27/59/5 105/127/5 104/128/5
f 127/129/6 128/130/6 40/131/6 39/132/6
f 53/133/2 61/134/2 44/135/2 43/136/2
f 133/137/1 43/138/1 44/139/1 134/140/1
f 39/141/2 40/142/2 68/143/2 60/144/2
f 67/145/8 169/146/8 170/147/8 68/111/8
f 59/148/2 67/149/2 66/150/2 58/151/2
f 66/152/1 174/153/1 172/154/1 58/155/1
f 57/156/2 65/157/2 64/158/2 56/159/2
f 63/160/8 177/161/8 178/162/8 64/163/8
f 55/164/2 63/165/2 62/166/2 54/167/2
f 61/168/8 181/169/8 182/170/8 62/171/8
f 44/114/8 61/168/8 45/172/8 42/115/8
f 61/168/8 62/171/8 46/173/8 45/172/8
f 62/171/8 63/160/8 47/174/8 46/173/8
f 63/160/8 64/163/8 48/175/8 47/174/8
f 64/163/8 65/176/8 49/177/8 48/175/8
f 65/176/8 66/178/8 50/179/8 49/177/8
f 66/178/8 67/145/8 51/180/8 50/179/8
f 67/145/8 68/111/8 52/112/8 51/180/8
f 42/117/3 45/181/3 76/182/3 41/118/3
f 45/181/3 46/183/3 75/184/3 76/182/3
f 46/183/3 47/185/3 74/186/3 75/184/3
f 47/185/3 48/187/3 73/188/3 74/186/3
f 48/187/3 49/189/3 72/190/3 73/188/3
f 49/189/3 50/191/3 71/192/3 72/190/3
f 50/191/3 51/193/3 70/194/3 71/192/3
f 51/193/3 52/109/3 69/110/3 70/194/3
f 41/119/7 76/195/7 53/196/7 43/120/7
f 76/195/7 75/197/7 54/198/7 53/196/7
f 75/197/7 74/199/7 55/200/7 54/198/7
f 74/199/7 73/201/7 56/202/7 55/200/7
f 73/201/7 72/203/7 57/204/7 56/202/7
f 72/203/7 71/205/7 58/206/7 57/204/7
f 71/205/7 70/207/7 59/208/7 58/206/7
f 70/207/7 69/107/7 60/108/7 59/208/7
f 68/209/1 170/210/1 168/211/1 60/212/1
f 60/108/7 168/213/7 167/214/7 59/208/7
f 59/215/6 167/216/6 169/217/6 67/218/6
f 65/176/8 173/219/8 174/220/8 66/178/8
f 58/206/7 172/221/7 171/222/7 57/204/7
f 57/223/6 171/224/6 173/225/6 65/226/6
f 55/227/6 175/228/6 177/229/6 63/230/6
f 56/202/7 176/231/7 175/232/7 55/200/7
f 64/233/1 178/234/1 176/235/1 56/236/1
f 53/237/6 179/238/6 181/239/6 61/240/6
f 54/198/7 180/241/7 179/242/7 53/196/7
f 62/243/1 182/244/1 180/245/1 54/246/1
f 96/247/1 88/248/1 78/249/1 85/250/1
f 90/251/3 95/252/3 122/253/3 121/254/3
f 77/255/2 108/256/2 112/257/2 81/258/2
f 85/259/2 78/260/2 110/261/2 109/262/2
f 91/263/4 81/264/4 112/265/4 111/266/4
f 126/267/5 123/268/5 83/269/5 93/270/5
f 93/271/1 83/272/1 84/273/1 94/274/1
f 123/275/2 124/276/2 84/277/2 83/278/2
f 77/255/2 85/259/2 109/262/2 108/256/2
f 107/279/6 108/280/6 109/281/6 114/282/6
f 87/283/1 96/247/1 85/250/1 77/284/1
f 97/39/1 103/40/1 96/247/1 87/283/1
f 98/41/6 107/279/6 114/282/6 106/42/6
f 124/285/4 125/286/4 94/287/4 84/288/4
f 101/47/1 93/271/1 94/274/1 102/48/1
f 128/49/5 126/267/5 93/270/5 101/50/5
f 79/289/5 89/290/5 115/291/5 116/292/5
f 99/55/4 91/263/4 111/266/4 100/56/4
f 78/293/5 88/294/5 113/295/5 110/296/5
f 106/42/6 114/282/6 113/297/6 105/61/6
f 103/40/1 104/63/1 88/248/1 96/247/1
f 89/298/6 79/299/6 108/280/6 107/279/6
f 80/300/6 86/301/6 109/281/6 110/302/6
f 82/303/6 92/304/6 111/305/6 112/306/6
f 79/299/6 82/303/6 112/306/6 108/280/6
f 90/307/6 80/300/6 110/302/6 113/297/6
f 86/301/6 95/308/6 114/282/6 109/281/6
f 92/304/6 89/298/6 107/279/6 111/305/6
f 95/308/6 90/307/6 113/297/6 114/282/6
f 122/309/6 117/310/6 118/311/6 121/312/6
f 116/313/6 115/314/6 119/315/6 120/316/6
f 95/317/4 86/318/4 117/319/4 122/320/4
f 82/321/2 79/322/2 116/323/2 120/324/2
f 86/325/2 80/326/2 118/327/2 117/328/2
f 89/329/3 92/330/3 119/331/3 115/332/3
f 80/333/5 90/334/5 121/335/5 118/336/5
f 92/337/4 82/338/4 120/339/4 119/340/4
f 159/341/7 150/342/7 125/286/7 124/285/7
f 142/343/2 159/344/2 124/276/2 123/275/2
f 158/345/8 142/346/8 123/268/8 126/267/8
f 87/347/5 77/348/5 130/349/5 132/350/5
f 77/255/2 81/258/2 129/351/2 130/352/2
f 81/264/4 91/263/4 131/353/4 129/354/4
f 97/121/5 87/347/5 132/350/5 134/122/5
f 91/263/4 99/55/4 133/123/4 131/353/4
f 125/286/4 127/125/4 102/124/4 94/287/4
f 107/279/6 98/41/6 100/126/6 111/305/6
f 88/294/5 104/128/5 105/127/5 113/295/5
f 127/129/6 125/355/6 126/356/6 128/130/6
f 143/357/3 131/358/3 132/359/3 151/360/3
f 133/137/1 134/140/1 132/361/1 131/362/1
f 125/363/3 150/364/3 158/365/3 126/366/3
f 157/367/8 158/345/8 170/147/8 169/146/8
f 149/368/3 148/369/3 156/370/3 157/371/3
f 156/372/1 148/373/1 172/154/1 174/153/1
f 147/374/3 146/375/3 154/376/3 155/377/3
f 153/378/8 154/379/8 178/162/8 177/161/8
f 145/380/3 144/381/3 152/382/3 153/383/3
f 151/384/8 152/385/8 182/170/8 181/169/8
f 132/350/8 130/349/8 135/386/8 151/384/8
f 151/384/8 135/386/8 136/387/8 152/385/8
f 152/385/8 136/387/8 137/388/8 153/378/8
f 153/378/8 137/388/8 138/389/8 154/379/8
f 154/379/8 138/389/8 139/390/8 155/391/8
f 155/391/8 139/390/8 140/392/8 156/393/8
f 156/393/8 140/392/8 141/394/8 157/367/8
f 157/367/8 141/394/8 142/346/8 158/345/8
f 130/352/2 129/351/2 166/395/2 135/396/2
f 135/396/2 166/395/2 165/397/2 136/398/2
f 136/398/2 165/397/2 164/399/2 137/400/2
f 137/400/2 164/399/2 163/401/2 138/402/2
f 138/402/2 163/401/2 162/403/2 139/404/2
f 139/404/2 162/403/2 161/405/2 140/406/2
f 140/406/2 161/405/2 160/407/2 141/408/2
f 141/408/2 160/407/2 159/344/2 142/343/2
f 129/354/7 131/353/7 143/409/7 166/410/7
f 166/410/7 143/409/7 144/411/7 165/412/7
f 165/412/7 144/411/7 145/413/7 164/414/7
f 164/414/9 145/413/9 146/415/9 163/416/9
f 163/416/7 146/415/7 147/417/7 162/418/7
f 162/418/7 147/417/7 148/419/7 161/420/7
f 161/420/7 148/419/7 149/421/7 160/422/7
f 160/422/7 149/421/7 150/342/7 159/341/7
f 158/423/1 150/424/1 168/211/1 170/210/1
f 150/342/7 149/421/7 167/214/7 168/213/7
f 149/425/6 157/426/6 169/217/6 167/216/6
f 155/391/8 156/393/8 174/220/8 173/219/8
f 148/419/7 147/417/7 171/222/7 172/221/7
f 147/427/6 155/428/6 173/225/6 171/224/6
f 145/429/6 153/430/6 177/229/6 175/228/6
f 146/415/7 145/413/7 175/232/7 176/231/7
f 154/431/1 146/432/1 176/235/1 178/234/1
f 143/433/6 151/434/6 181/239/6 179/238/6
f 144/411/7 143/409/7 179/242/7 180/241/7
f 152/435/1 144/436/1 180/245/1 182/244/1
